PathFileType	4	(X/Y/Z)	..\data\2015007\dynamic\2015007_C4_04.trc
DataRate	CameraRate	NumFrames	NumMarkers	Units	OrigDataRate	OrigDataStartFrame	OrigNumFrames
100.000000	100.000000	4	52	mm	100.000000	40	162
Frame#	Time	L_IAS			L_IPS			R_IPS			R_IAS			L_FTC			L_FLE			L_FME			L_FAX			L_TTC			L_FAL			L_TAM			L_FCC			L_FM1			L_FM2			L_FM5			R_FTC			R_FLE			R_FME			R_FAX			R_TTC			R_FAL			R_TAM			R_FCC			R_FM1			R_FM2			R_FM5			CV7			TV10			SXS			SJN			L_SIA			L_SRS			L_SAA			L_SAE			L_HLE			L_HME			L_UOA			L_RSP			L_UHE			L_HM2			L_HM5			R_SIA			R_SRS			R_SAA			R_SAE			R_HLE			R_HME			R_UOA			R_RSP			R_UHE			R_HM2			R_HM5			
		X1	Y1	Z1	X2	Y2	Z2	X3	Y3	Z3	X4	Y4	Z4	X5	Y5	Z5	X6	Y6	Z6	X7	Y7	Z7	X8	Y8	Z8	X9	Y9	Z9	X10	Y10	Z10	X11	Y11	Z11	X12	Y12	Z12	X13	Y13	Z13	X14	Y14	Z14	X15	Y15	Z15	X16	Y16	Z16	X17	Y17	Z17	X18	Y18	Z18	X19	Y19	Z19	X20	Y20	Z20	X21	Y21	Z21	X22	Y22	Z22	X23	Y23	Z23	X24	Y24	Z24	X25	Y25	Z25	X26	Y26	Z26	X27	Y27	Z27	X28	Y28	Z28	X29	Y29	Z29	X30	Y30	Z30	X31	Y31	Z31	X32	Y32	Z32	X33	Y33	Z33	X34	Y34	Z34	X35	Y35	Z35	X36	Y36	Z36	X37	Y37	Z37	X38	Y38	Z38	X39	Y39	Z39	X40	Y40	Z40	X41	Y41	Z41	X42	Y42	Z42	X43	Y43	Z43	X44	Y44	Z44	X45	Y45	Z45	X46	Y46	Z46	X47	Y47	Z47	X48	Y48	Z48	X49	Y49	Z49	X50	Y50	Z50	X51	Y51	Z51	X52	Y52	Z52	

41	0.4	362.7795410156251	908.8025512695315	-338.1529235839844	149.7708129882813	917.7012329101565	-254.9035949707032	161.8387298583985	926.6096801757815	-148.8625030517578	381.2895812988282	908.7927856445315	-91.66978454589845	291.7362365722657	802.1397705078127	-397.6208801269532	444.007293701172	462.135711669922	-357.1963195800782	466.977020263672	446.2629699707032	-236.7551727294922	428.4183044433595	406.6747131347657	-362.4460144042969	485.037811279297	392.657928466797	-319.2376098632813	366.9668273925782	88.75945281982423	-324.9968872070313	402.6792907714845	90.05724334716798	-248.5190124511719	329.9708557128907	41.73937988281251	-265.7694396972657	497.8397827148439	29.06071853637696	-282.7490234375001	488.4429626464845	41.37042999267579	-327.5567321777344	436.4849243164064	24.29668998718262	-360.2842712402344	284.8631286621094	812.1274414062502	-25.67562484741212	259.9727172851563	440.4395141601564	-93.75093841552736	241.5133666992188	427.5538024902345	-222.0050048828126	239.3033599853516	386.4139404296876	-89.25943756103517	284.2070617675782	372.5096435546876	-138.5928344726563	168.584701538086	67.4794387817383	-127.3473892211914	193.3971710205079	79.50156402587892	-210.4669189453126	119.9144592285157	22.09952163696289	-177.6572570800782	299.9010314941407	18.47973060607911	-191.6985321044922	296.8085021972657	32.13713455200196	-145.9989471435547	242.9923553466797	13.28920459747315	-95.32376861572267	263.5075073242188	1412.427001953125	-201.4958953857422	161.6521606445313	1175.267456054688	-208.8629608154297	424.9701538085939	1077.284912109375	-227.3869781494141	374.5541687011719	1328.776977539063	-216.7156982421876	154.8545989990235	1224.094970703125	-293.5373535156251	197.7737731933594	1350.590576171875	-303.6132812500001	238.1285552978516	1354.494140625	-368.5211791992188	286.2290039062501	1361.321655273438	-385.1898193359376	234.7376251220704	1052.553833007813	-454.3972778320314	215.9187622070313	1045.209228515625	-378.6083068847657	207.5370788574219	1029.654174804688	-426.2972106933595	327.5588989257813	827.3693847656252	-436.294891357422	258.7546081542969	826.622253417969	-478.4451904296876	349.4223937988282	766.6212158203126	-449.3047180175782	257.3970031738282	764.8366088867189	-479.9299926757814	162.9393157958985	1216.198364257813	-126.5445098876953	208.7349090576172	1338.695922851563	-122.8582305908203	266.3981018066407	1340.858764648438	-53.81276321411134	314.1404418945313	1345.462646484375	-40.03279495239259	315.9667358398438	1028.233642578125	37.94144821166993	273.8474731445313	1011.54931640625	-20.31524276733399	288.8388977050782	995.3222656250002	23.85033416748047	430.2681884765626	828.7470703125002	20.56794357299805	388.2439575195314	822.4418945312502	65.6525115966797	471.055877685547	757.5411987304689	27.69009590148926	403.5236816406251	757.3205566406251	78.03504943847658	
42	0.41	373.7285461425782	907.3253173828127	-338.3038940429688	160.5186157226563	916.3885498046877	-255.1652984619141	172.4640045166016	925.1949462890627	-149.2035217285157	391.6763610839845	907.0166625976565	-91.73500061035158	302.3653869628907	801.0674438476565	-397.7676696777345	456.1563720703126	461.4317321777345	-356.4520568847657	477.3110656738282	445.5579223632814	-235.7141723632813	442.9497375488282	405.0058898925782	-362.1533203125001	499.8558959960939	393.7286376953126	-318.2065429687501	401.2300415039064	83.8675994873047	-326.0896911621094	436.3762512207032	87.1362991333008	-249.2718505859376	366.7579956054688	34.71636581420899	-267.2760314941407	535.2686767578126	32.35052108764649	-282.1166076660157	525.8298950195314	43.98472213745118	-327.1115417480469	475.3474426269532	23.75942993164063	-360.4654235839844	294.8421630859376	811.2725830078127	-25.67918586730958	263.9995117187501	440.2239685058595	-93.99405670166017	245.1133575439454	427.7593994140626	-222.3187103271485	242.6090240478516	386.408660888672	-89.54023742675783	287.4371337890626	371.9120178222657	-138.8098754882813	168.9173278808594	68.11678314208986	-127.7797088623047	194.1103820800782	79.78182983398439	-210.8735656738282	120.0675735473633	22.98754310607911	-178.2165985107422	299.9628601074219	18.38641357421875	-191.8359069824219	296.7435607910157	32.04085159301759	-146.1335754394532	242.8719024658204	13.38960266113282	-95.59087371826173	274.5445556640626	1411.128173828125	-201.5795288085938	172.4687042236328	1174.074096679688	-208.5837402343751	436.0675659179689	1075.664428710938	-227.7006225585938	385.5269470214845	1327.373779296875	-216.9994659423829	165.5014953613282	1222.843994140625	-293.3272094726563	208.5653533935547	1349.27880859375	-303.4889526367188	248.7288665771485	1353.1162109375	-368.4722900390626	296.7596130371094	1359.855712890625	-385.3500061035157	242.0476989746094	1051.584228515625	-453.8143920898439	224.0303039550782	1044.447265625	-377.8628845214844	214.9474487304688	1029.076171875	-425.4540405273439	332.6065979003907	825.4869384765627	-437.2207946777345	262.8509521484376	825.4578857421877	-478.2163085937501	353.2118225097657	764.2745971679689	-450.4184570312501	260.6912841796876	763.6706542968751	-479.7351074218751	173.9536743164063	1215.093017578125	-126.2362823486328	219.8049926757813	1337.611938476563	-122.7196884155274	277.8572082519532	1339.680786132813	-53.78403854370119	325.7509460449219	1344.14306640625	-40.23840713500977	329.4649353027344	1027.182373046875	38.12333297729493	287.1763000488282	1009.995971679688	-19.79727935791016	302.3854675292969	993.9398193359377	24.28787422180176	446.4992065429689	829.1726684570315	19.21830177307129	404.9227600097657	822.120544433594	64.61771392822267	488.4087524414064	758.5988159179689	25.88360977172852	421.3132934570314	757.2040405273439	76.71949005126955	
43	0.42	384.7149658203126	905.8375244140627	-338.6315307617188	171.3208160400391	914.9080810546877	-255.4493865966797	183.1228942871094	923.6572265625002	-149.6119384765625	402.1040954589845	905.2745361328127	-91.87454986572267	312.8813781738282	799.8294677734377	-397.9427490234376	467.7094116210939	460.4070739746095	-355.7086486816407	486.7449951171876	444.244842529297	-234.637435913086	456.8392944335939	403.2176513671876	-361.8731079101563	513.9562988281251	394.5784606933595	-317.1693115234376	434.9144897460939	79.96788024902345	-327.0992736816407	469.3473205566407	85.16394042968751	-249.9940185546876	403.017791748047	28.83101081848145	-268.6482849121094	571.5849609375001	36.55683135986329	-281.4122619628907	562.1458740234376	47.50606155395509	-326.5747985839844	513.3050537109376	24.26672554016114	-360.5429687500001	304.8350524902344	810.4252929687502	-25.73889923095704	268.2798767089844	440.060028076172	-94.25913238525392	249.1188507080079	428.006072998047	-222.6640319824219	246.1533203125001	386.4674377441407	-89.84500122070314	290.9355163574219	371.3611450195313	-139.0066375732422	169.2939453125	68.88264465332033	-128.222412109375	194.8991088867188	80.18020629882814	-211.2877655029297	120.2455368041992	24.04880714416505	-178.8100280761719	300.0388488769532	18.31868553161621	-191.9652404785157	296.6619567871094	31.94384765625001	-146.2584533691407	242.724105834961	13.49642562866211	-95.88572692871095	285.6029663085938	1409.72998046875	-201.7351074218751	183.2960052490235	1172.798583984375	-208.4600830078126	447.1015014648439	1073.946655273438	-228.0695343017579	396.5373535156251	1325.8583984375	-217.3188018798829	176.2430419921875	1221.510009765625	-293.2671203613282	219.438705444336	1347.88671875	-303.4842529296876	259.4420471191407	1351.671630859375	-368.5280151367188	307.4201354980469	1358.317138671875	-385.5796508789064	249.5122070312501	1050.576293945313	-453.3076477050782	232.2714080810547	1043.635131835938	-377.2036743164063	222.502426147461	1028.454956054688	-424.6956176757814	337.6272888183594	823.5870361328127	-438.1259155273439	267.0851745605469	824.3114013671877	-478.0420532226564	357.0078735351563	761.8850708007814	-451.4473571777345	264.0981445312501	762.5232543945314	-479.5894470214845	184.928207397461	1213.893310546875	-126.0805206298828	230.8216247558594	1336.445678710938	-122.6906661987305	289.2697448730469	1338.3642578125	-53.8402671813965	337.3216552734376	1342.674072265625	-40.50011444091798	342.9033203125001	1026.004272460938	38.1687126159668	300.5087890625001	1008.306030273438	-19.4492473602295	315.9190368652344	992.4221801757815	24.56347465515137	462.5849914550782	829.4639892578127	17.77528762817383	421.4173278808595	821.6895141601565	63.45724105834962	505.5743103027345	759.5161743164064	24.00132942199708	438.9090270996095	756.9876708984376	75.29056549072267	
44	0.43	395.7593994140626	904.3721923828127	-339.1215515136719	182.1980743408203	913.2789306640627	-255.785140991211	193.8143157958985	922.0312500000002	-150.1112213134766	412.5870666503907	903.6149902343752	-92.07561492919923	323.3468933105469	798.4395141601565	-398.157928466797	478.7488098144532	459.1000976562501	-354.9834594726563	495.426971435547	442.397674560547	-233.5442962646485	470.1289062500001	401.3390197753907	-361.6044616699219	527.3947143554689	395.2153625488282	-316.1318359375001	467.6530151367189	77.02772521972658	-327.9610595703126	501.2663879394532	84.09509277343751	-250.6297454833985	438.3388671875001	24.08022689819337	-269.8005676269532	606.4562988281251	41.49789428710938	-280.6444091796876	597.0346069335939	51.76527023315431	-325.9474792480469	549.9389648437501	25.68570137023926	-360.4864807128907	314.8465270996094	809.6067504882815	-25.86189651489259	272.8388061523438	439.9503784179689	-94.53079223632814	253.5793762207032	428.2791442871095	-223.0279083251954	249.9667968750001	386.5941467285157	-90.15696716308595	294.7265319824219	370.8600158691407	-139.1680145263672	169.7227935791016	69.78966522216798	-128.6519470214844	195.7574462890626	80.71856689453126	-211.6931152343751	120.4473342895508	25.29735374450684	-179.4084777832032	300.1347961425782	18.28986167907715	-192.0742645263672	296.5747680664063	31.85722732543946	-146.362533569336	242.559066772461	13.61499118804932	-96.19560241699222	296.6749572753907	1408.251831054688	-201.9697418212891	194.1338958740235	1171.451538085938	-208.497299194336	458.0508117675782	1072.17041015625	-228.4962921142579	407.5799255371095	1324.256713867188	-217.6799774169922	187.0742797851563	1220.10791015625	-293.3579711914063	230.386215209961	1346.4306640625	-303.6042175292969	270.2558288574219	1350.176635742188	-368.6953430175782	318.2015686035157	1356.727416992188	-385.8839416503907	257.1515197753907	1049.541870117188	-452.885955810547	240.655990600586	1042.788330078125	-376.6394042968751	230.2202453613282	1027.8056640625	-424.0334472656251	342.6133728027344	821.6671142578127	-438.9871215820314	271.4817810058594	823.1964111328127	-477.9344787597657	360.8232727050782	759.4639892578126	-452.3787231445314	267.6371154785157	761.4099731445314	-479.5004882812501	195.8663177490235	1212.609008789063	-126.0843811035157	241.7807769775391	1335.209838867188	-122.7790679931641	300.6234741210938	1336.9267578125	-53.99023056030275	348.8362121582032	1341.080444335938	-40.82291412353516	356.2812805175782	1024.712158203125	38.07472610473634	313.8311767578126	1006.507263183594	-19.27890396118164	329.4367675781251	990.7857055664065	24.66988372802735	478.5056762695314	829.6336059570315	16.24300384521485	437.7093200683595	821.1643676757815	62.17618560791017	522.5306396484376	760.2991943359376	22.04944610595703	456.2832336425782	756.6869506835939	73.75376892089845	
